PathFileType	4	(X/Y/Z)	G:\TennisProject\Miami_Dimitrov_Sinner_masked_Sports2D\Miami_Dimitrov_Sinner_masked_Sports2D_px_person03.trc
DataRate	CameraRate	NumFrames	NumMarkers	Units	OrigDataRate	OrigDataStartFrame	OrigNumFrames
25	25	5	22	m	25	249	499
Frame#	Time	Hip			RHip			RKnee			RAnkle			RBigToe			RSmallToe			RHeel			LHip			LKnee			LAnkle			LBigToe			LSmallToe			LHeel			Neck			Head			Nose			RShoulder			RElbow			RWrist			LShoulder			LElbow			LWrist		
		X1	Y1	Z1	X2	Y2	Z2	X3	Y3	Z3	X4	Y4	Z4	X5	Y5	Z5	X6	Y6	Z6	X7	Y7	Z7	X8	Y8	Z8	X9	Y9	Z9	X10	Y10	Z10	X11	Y11	Z11	X12	Y12	Z12	X13	Y13	Z13	X14	Y14	Z14	X15	Y15	Z15	X16	Y16	Z16	X17	Y17	Z17	X18	Y18	Z18	X19	Y19	Z19	X20	Y20	Z20	X21	Y21	Z21	X22	Y22	Z22
249	9.96	574.2875983231444	169.52029733075747	0.0	568.2470843649071	170.2523617082063	0.0	566.8905033005092	191.72937586333424	0.0	566.9605092158743	213.66660542769273	0.0	564.1710865091281	219.0038685438712	0.0	561.9855958555399	218.45597779286445	0.0	568.0338781687767	217.29174287403484	0.0	579.9633815879808	170.39586616704202	0.0	582.9003817594163	191.7371447525557	0.0	585.6685466455008	213.60588386882353	0.0	586.7195692395399	218.68983064960315	0.0	589.2406627609275	218.36670353635975	0.0	584.3851881625438	217.31078514830176	0.0	573.3395279692813	138.66870021971	0.0	572.5787340858033	124.91567839942707	0.0	572.3071077096156	132.47093069306706	0.0	563.2339044254564	143.66008893826475	0.0	562.1934059737721	155.7893030159928	0.0	570.1517424297795	161.60596580172106	0.0	583.9087876074622	143.1365462840269	0.0	586.3542886201283	155.95312466635033	0.0	579.2115565170321	162.13299094324088	0.0
250	10.0	574.1900272449033	169.51831080043306	0.0	568.16518068615	170.16369961569018	0.0	566.9290112232687	191.7174720200689	0.0	566.9307587655671	213.60121258484293	0.0	564.0708882666056	219.24109306192688	0.0	561.7849283677243	218.66937964586253	0.0	567.8823486484725	217.31936093579253	0.0	579.9906540421557	170.30956706379405	0.0	582.9970616810515	191.6268161092113	0.0	585.6612041014091	213.6085475373112	0.0	586.5603998172149	219.01920202497377	0.0	589.2638025618622	218.71025073988122	0.0	584.0047687188502	217.45440340563218	0.0	573.3249740781423	138.5166869896525	0.0	572.4581915280378	124.7819401435149	0.0	572.1708775105297	132.19895168457313	0.0	563.1974960186838	143.60609957479147	0.0	562.1312951777893	155.688400477464	0.0	570.1026899769558	161.6547382180939	0.0	583.9997352326642	143.19259237266917	0.0	586.446405848711	155.95757111766954	0.0	579.5822106965863	162.31752422745376	0.0
251	10.040000000000001	574.0378536967564	169.51477995138998	0.0	568.0484048410692	170.12679489578477	0.0	566.8965202214193	191.79314059207258	0.0	566.886367517111	213.72748071831404	0.0	564.0804028804043	219.21458244300936	0.0	561.8852669815358	218.6637356426275	0.0	568.0120513324217	217.35328218880244	0.0	579.9777695287944	170.2543904138961	0.0	582.9108559541052	191.58364849977107	0.0	585.5651761034374	213.6701821944931	0.0	586.6360009544185	218.7683463178444	0.0	589.2503734428191	218.36730716025735	0.0	584.2652937964156	217.2989711940215	0.0	573.1654911267926	138.48865453968523	0.0	572.3308297991866	124.85410325325574	0.0	572.0575499995209	132.2611242191282	0.0	563.1409148204731	143.80354954439812	0.0	562.2405111586826	155.9221596146603	0.0	570.0250754315898	161.9802198956309	0.0	583.9246966913865	143.27798739591316	0.0	586.3804253740159	156.0235903237489	0.0	579.2196190375641	162.42969684619544	0.0
252	10.08	573.9871120947873	169.48124195244787	0.0	568.0366316568532	170.10314126187043	0.0	566.8786733875968	191.78142976812472	0.0	566.8888892555653	213.76818411161128	0.0	564.1424503154027	219.02849399903675	0.0	562.0571803974306	218.50520270381742	0.0	568.0936933551914	217.28980162368836	0.0	579.9456238828943	170.2242086308424	0.0	582.798144340306	191.58597433432888	0.0	585.547914801006	213.655638089825	0.0	586.6997107751295	218.4214248962399	0.0	589.2117713506823	218.0085724016796	0.0	584.5477707917232	217.10417086548512	0.0	573.0770238245204	138.52772150522708	0.0	572.2905527973512	124.96442348128016	0.0	572.0418639650642	132.49765026717347	0.0	563.1492210453619	143.92903042323604	0.0	562.2962251362139	155.96312306694682	0.0	569.9208589158947	162.06926948297468	0.0	583.8444602442388	143.2400813634859	0.0	586.2635785162158	155.8888371954711	0.0	578.9435011587906	162.35312168809403	0.0
253	10.120000000000001	574.0314701315522	169.41655916195833	0.0	568.0525705004693	170.0220844126177	0.0	566.9068986205384	191.57663558894808	0.0	566.9037948406494	213.55188227067848	0.0	564.1126661615349	219.02195167140874	0.0	561.9215590942636	218.48697058020244	0.0	567.9041769142299	217.16567548072692	0.0	579.935888760254	170.16105674756574	0.0	582.8575960515876	191.51563566476892	0.0	585.6347276858215	213.4928657506856	0.0	586.4638520808901	218.57057973563218	0.0	589.1519269878085	218.32174579006903	0.0	584.2085148662854	217.2200711647339	0.0	573.1545363589224	138.48686815401967	0.0	572.3359921571407	124.90799446280776	0.0	572.0590747860654	132.5229623293696	0.0	563.1709381392395	143.75642874826934	0.0	562.1404820965568	155.60770256424897	0.0	569.8018128464876	161.8247014997621	0.0	583.9678896243566	143.10066816903802	0.0	586.3191451315031	155.6201801287603	0.0	579.3893442380014	162.31023945411633	0.0
